<?xml version="1.0" encoding="UTF-8" standalone="no"?>
<svg
   xmlns:dc="http://purl.org/dc/elements/1.1/"
   xmlns:cc="http://creativecommons.org/ns#"
   xmlns:rdf="http://www.w3.org/1999/02/22-rdf-syntax-ns#"
   xmlns:svg="http://www.w3.org/2000/svg"
   xmlns="http://www.w3.org/2000/svg"
   xmlns:sodipodi="http://sodipodi.sourceforge.net/DTD/sodipodi-0.dtd"
   xmlns:inkscape="http://www.inkscape.org/namespaces/inkscape"
   svg:contrastcolor="ffffff"
   svg:template="InvertedHex1"
   svg:presentation="2.5"
   svg:layouttype="undefined"
   svg:specialfontid="undefined"
   svg:id1="242"
   svg:id2="241"
   svg:companyname="functionalfillet"
   svg:companytagline=""
   version="1.1"
   viewBox="0 0 596.06994 469.18968"
   class="svg-primary-tile"
   id="svg60"
   sodipodi:docname="logo_v2.svg"
   inkscape:version="0.92.3 (2405546, 2018-03-11)"
   width="596.06995"
   height="469.1897"
   inkscape:export-filename="../a6c80eea/logo.png"
   inkscape:export-xdpi="180"
   inkscape:export-ydpi="180">
  <metadata
     id="metadata35">
    <rdf:RDF>
      <cc:Work
         rdf:about="">
        <dc:format>image/svg+xml</dc:format>
        <dc:type
           rdf:resource="http://purl.org/dc/dcmitype/StillImage" />
        <dc:title></dc:title>
      </cc:Work>
    </rdf:RDF>
  </metadata>
  <defs
     id="defs64" />
  <sodipodi:namedview
     id="namedview62"
     pagecolor="#ffffff"
     bordercolor="#000000"
     borderopacity="0.25"
     inkscape:showpageshadow="2"
     inkscape:pageopacity="0.0"
     inkscape:pagecheckerboard="0"
     inkscape:deskcolor="#d1d1d1"
     showgrid="false"
     inkscape:zoom="0.32910554"
     inkscape:cx="205.82685"
     inkscape:cy="346.77208"
     inkscape:window-width="1853"
     inkscape:window-height="1025"
     inkscape:window-x="1987"
     inkscape:window-y="27"
     inkscape:window-maximized="1"
     inkscape:current-layer="g58"
     fit-margin-top="0"
     fit-margin-left="0"
     fit-margin-right="0"
     fit-margin-bottom="0">
    <inkscape:grid
       type="xygrid"
       id="grid320"
       originx="-807.82083"
       originy="-419.6767" />
  </sodipodi:namedview>
  <g
     fill-rule="none"
     stroke-miterlimit="10"
     font-weight="none"
     font-size="none"
     text-anchor="none"
     style="font-family:none;mix-blend-mode:normal;fill:#000000;stroke:none;stroke-width:1;stroke-linecap:butt;stroke-linejoin:miter;stroke-miterlimit:10;stroke-dasharray:none;stroke-dashoffset:0"
     id="g58"
     transform="translate(-807.82084,-178.46053)">
    <rect
       sodipodi:insensitive="true"
       y="143.82654"
       x="-339.41821"
       height="779.67389"
       width="2881.5374"
       id="rect387"
       style="display:inline;fill:#ffffff;stroke:none;stroke-width:5" />
    <g
       style="fill:#000000"
       transform="translate(45.536279,9.8220922)"
       id="g333">
      <path
         inkscape:connector-curvature="0"
         style="font-family:none;mix-blend-mode:normal;fill:#333333;fill-rule:nonzero;stroke:none;stroke-width:1.64930284;stroke-linecap:butt;stroke-linejoin:miter;stroke-miterlimit:10;stroke-dasharray:none;stroke-dashoffset:0"
         id="path38"
         data-paper-data="{&quot;glyphName&quot;:&quot;F&quot;,&quot;glyphIndex&quot;:10,&quot;word&quot;:1}"
         d="m 1358.3545,301.50728 h -100.8064 l 67.8152,64.14963 v 54.98525 l -86.3363,1.07429 -23.6343,88.00192 -12.0139,8.59429 0.5371,-99.1589 34.4069,32.17346 9.4635,-73.97008 -23.9999,-2.44049 17.2662,-9.25989 h -25.6599 25.6599 l -39.441,-65.22382 -3.2229,-53.91101 h 159.9658 z"
         sodipodi:nodetypes="cccccccccccccccccc" />
      <path
         inkscape:connector-curvature="0"
         style="font-family:none;mix-blend-mode:normal;fill:#333333;fill-rule:nonzero;stroke:none;stroke-width:1.64930284;stroke-linecap:butt;stroke-linejoin:miter;stroke-miterlimit:10;stroke-dasharray:none;stroke-dashoffset:0"
         id="path18"
         data-paper-data="{&quot;glyphName&quot;:&quot;F&quot;,&quot;glyphIndex&quot;:0,&quot;firstGlyphOfWord&quot;:true,&quot;word&quot;:1}"
         d="m 832.61298,429.6171 h 26.81228 l 29.4536,64.14958 v 54.9853 h -71.60899 v 89.07616 h -54.98531 v -114.73599 -1.83287 -1.83292 -25.65983 h 54.98531 25.65983 l -64.14953,-64.14948 v -54.9853 h 53.83281 z"
         sodipodi:nodetypes="ccccccccccccccccc" />
      <path
         sodipodi:nodetypes="cc"
         inkscape:connector-curvature="0"
         inkscape:export-ydpi="360"
         inkscape:export-xdpi="360"
         inkscape:export-filename="../f96368e7/logo.png"
         id="path1245"
         d="M 784.46372,399.51265 H 823.7243"
         style="fill:#808080;stroke:#333333;stroke-width:25.13199997;stroke-dasharray:none;stroke-opacity:1" />
      <path
         sodipodi:nodetypes="cc"
         inkscape:connector-curvature="0"
         id="path1249"
         d="M 784.46372,527.40183 H 889.25858"
         style="fill:#808080;stroke:#333333;stroke-width:25.13199997;stroke-dasharray:none;stroke-opacity:1" />
      <path
         sodipodi:nodetypes="cc"
         inkscape:connector-curvature="0"
         id="path1251"
         d="m 1205.1816,273.36284 h 99.2821"
         style="fill:#808080;stroke:#333333;stroke-width:25.13199997;stroke-dasharray:none;stroke-opacity:1" />
      <path
         sodipodi:nodetypes="cc"
         inkscape:connector-curvature="0"
         id="path1253"
         d="m 1259.0721,399.35667 h 45.3916"
         style="fill:#808080;stroke:#333333;stroke-width:25.13199997;stroke-dasharray:none;stroke-opacity:1" />
      <path
         inkscape:connector-curvature="0"
         sodipodi:nodetypes="cc"
         id="path436"
         d="M 948.30654,501.31868 1149.0832,291.26663"
         style="fill:#4d4d4d;stroke:#333333;stroke-width:25.13199997;stroke-dasharray:none;stroke-opacity:1" />
      <path
         inkscape:connector-curvature="0"
         sodipodi:nodetypes="cc"
         id="path1178"
         d="M 911.7334,395.13271 1149.8286,289.1266"
         style="fill:#4d4d4d;stroke:#333333;stroke-width:25.13199997;stroke-dasharray:none;stroke-opacity:1" />
      <path
         inkscape:connector-curvature="0"
         id="path1180"
         d="M 962.63545,302.04949 1161.0068,483.48737"
         style="fill:#4d4d4d;stroke:#333333;stroke-width:25.13199997;stroke-dasharray:none;stroke-opacity:1" />
      <g
         transform="matrix(5.0263915,0,0,5.0263915,-335.30901,-689.7311)"
         style="fill:#000000;fill-rule:nonzero"
         id="g50"
         data-paper-data="{&quot;isPrimaryText&quot;:true}" />
      <g
         transform="matrix(5.0263915,0,0,5.0263915,-334.46769,-679.00448)"
         style="fill:#000000;fill-rule:evenodd"
         id="g54"
         data-paper-data="{&quot;isIcon&quot;:&quot;true&quot;,&quot;iconType&quot;:&quot;icon&quot;,&quot;rawIconId&quot;:&quot;1552991&quot;,&quot;selectedEffects&quot;:{&quot;container&quot;:&quot;&quot;,&quot;transformation&quot;:&quot;&quot;,&quot;pattern&quot;:&quot;&quot;},&quot;isDetailed&quot;:false,&quot;fillRule&quot;:&quot;evenodd&quot;,&quot;bounds&quot;:{&quot;x&quot;:228.99140708915147,&quot;y&quot;:168.6384532760473,&quot;width&quot;:92.01718582169704,&quot;height&quot;:92.01718582169707},&quot;iconStyle&quot;:&quot;standalone&quot;,&quot;suitableAsStandaloneIcon&quot;:true}">
        <path
           inkscape:connector-curvature="0"
           style="fill:#000000"
           id="path52"
           data-paper-data="{&quot;isPathIcon&quot;:true}"
           d="m 309.04291,195.07269 c 1.67356,2.90084 2.97216,6.03518 3.86357,9.3455 4.64227,1.10421 8.10211,5.25303 8.10211,10.22886 0,4.98043 -3.45985,9.1281 -8.10211,10.23231 -0.89142,3.30572 -2.19001,6.44465 -3.86357,9.3455 2.49252,4.06371 2.00597,9.43866 -1.51023,12.95487 -3.51966,3.52081 -8.89691,4.00735 -12.95832,1.51023 -2.90199,1.67356 -6.03633,2.97216 -9.34204,3.86357 -1.10766,4.64227 -5.25648,8.10211 -10.23231,8.10211 -4.97928,0 -9.12926,-3.45985 -10.22886,-8.10211 -3.30917,-0.89142 -6.4481,-2.19001 -9.3524,-3.86012 -4.06026,2.49022 -9.43176,2.00828 -12.95142,-1.51253 -3.51621,-3.51621 -4.0039,-8.89231 -1.51023,-12.95142 -1.67701,-2.90544 -2.97216,-6.03863 -3.86357,-9.35355 -4.64227,-1.10306 -8.10211,-5.24843 -8.10211,-10.22886 0,-4.97238 3.45985,-9.12465 8.10096,-10.23001 0.89142,-3.31032 2.19001,-6.4435 3.86357,-9.34895 -2.49252,-4.06256 -2.01058,-9.43521 1.51023,-12.95487 3.51621,-3.51621 8.89231,-4.00275 12.95487,-1.50908 2.90199,-1.67356 6.03978,-2.97331 9.34895,-3.86357 1.10076,-4.63882 5.25073,-8.10211 10.23001,-8.10211 4.97583,0 9.12465,3.4633 10.23231,8.10556 3.30572,0.89142 6.44005,2.19001 9.34204,3.86357 4.06256,-2.49597 9.44211,-2.01058 12.95832,1.50563 3.51621,3.51966 4.0039,8.89691 1.51023,12.95947 z m -30.20924,-15.89137 c 0,-2.11525 -1.71382,-3.83367 -3.83367,-3.83367 -2.11985,0 -3.83367,1.71957 -3.83367,3.83367 0,2.1187 1.71382,3.83367 3.83367,3.83367 2.11985,0 3.83367,-1.71382 3.83367,-3.83367 z m 24.03373,50.42427 c 0.99264,-1.84149 1.79779,-3.79341 2.412,-5.83044 -3.1861,-1.81159 -5.3577,-5.20127 -5.3577,-9.1281 0,-3.92453 2.17046,-7.31192 5.3577,-9.1281 -0.61421,-2.03703 -1.42052,-3.98664 -2.412,-5.82584 -3.53461,0.97078 -7.46604,0.11272 -10.24381,-2.66505 -2.77777,-2.77892 -3.63583,-6.71035 -2.66505,-10.24841 -1.84149,-0.99264 -3.79226,-1.79664 -5.82929,-2.41085 -1.81734,3.1861 -5.20587,5.3577 -9.12926,5.3577 -3.93143,0 -7.31652,-2.17161 -9.12926,-5.3577 -2.03588,0.61421 -3.9901,1.41937 -5.82929,2.4074 0.97078,3.53806 0.11732,7.47295 -2.6616,10.25186 -2.78122,2.77777 -6.71725,3.63468 -10.25071,2.6616 -0.98918,1.84149 -1.79779,3.79226 -2.412,5.82929 3.18955,1.81619 5.36115,5.20357 5.36115,9.1281 0,3.93143 -2.17161,7.31767 -5.36115,9.1281 0.61421,2.04048 1.42397,3.99125 2.412,5.83389 3.53806,-0.97423 7.47295,-0.11617 10.25071,2.6616 2.77892,2.78237 3.63583,6.7138 2.6616,10.24726 1.83804,0.99379 3.79226,1.79779 5.82929,2.40855 1.81389,-3.1861 5.19782,-5.3577 9.12926,-5.3577 3.92453,0 7.31307,2.17046 9.12926,5.3577 2.03588,-0.61421 3.98664,-1.42052 5.82929,-2.412 -0.97423,-3.53461 -0.11272,-7.46604 2.66505,-10.24381 2.77432,-2.77777 6.7092,-3.63583 10.24381,-2.66505 z m -0.0782,-42.74773 c -1.49758,-1.49413 -3.92338,-1.49758 -5.42211,0 -1.49988,1.50103 -1.49643,3.92683 0,5.42556 1.49873,1.49413 3.92453,1.49758 5.42211,0 1.49758,-1.50103 1.49758,-3.92798 0,-5.42556 z m -50.15627,0 c -1.49873,-1.49413 -3.92453,-1.49413 -5.42211,0 -1.49758,1.49758 -1.49758,3.92683 0,5.42556 1.49758,1.49413 3.92338,1.49413 5.42211,0 1.49758,-1.49758 1.49758,-3.92798 0,-5.42556 z m -16.93231,27.78919 c 0,2.1187 1.71497,3.83482 3.83482,3.83482 2.1187,0 3.83367,-1.71612 3.83367,-3.83482 0,-2.11525 -1.71497,-3.83367 -3.83367,-3.83367 -2.11985,0 -3.83482,1.71842 -3.83482,3.83367 z m 70.9303,0 c 0,2.1187 1.71497,3.83482 3.83367,3.83482 2.11985,0 3.83482,-1.71612 3.83482,-3.83482 0,-2.11525 -1.71497,-3.83367 -3.83482,-3.83367 -2.1187,0 -3.83367,1.71842 -3.83367,3.83367 z m -9.26383,27.78919 c 1.49873,1.49758 3.92453,1.49758 5.42211,0 1.49413,-1.49758 1.49758,-3.92338 0,-5.42211 -1.49758,-1.50103 -3.92798,-1.49758 -5.42211,0 -1.49758,1.49873 -1.50103,3.92453 0,5.42211 z m -50.15627,0 c 1.49758,1.49758 3.92338,1.49758 5.42211,0 1.49643,-1.49758 1.49643,-3.92338 0,-5.42211 -1.49873,-1.49758 -3.92453,-1.49758 -5.42211,0 -1.49758,1.49873 -1.49758,3.92453 0,5.42211 z m 23.95552,7.67538 c 0,2.11985 1.71382,3.83482 3.83367,3.83482 2.11525,0 3.83367,-1.71497 3.83367,-3.83482 0,-2.1187 -1.71842,-3.83367 -3.83367,-3.83367 -2.11985,0 -3.83367,1.71497 -3.83367,3.83367 z" />
      </g>
    </g>
  </g>
</svg>
