<?xml version="1.0" encoding="UTF-8" standalone="no"?>
<svg
   svg:contrastcolor="ffffff"
   svg:template="InvertedHex1"
   svg:presentation="2.5"
   svg:layouttype="undefined"
   svg:specialfontid="undefined"
   svg:id1="242"
   svg:id2="241"
   svg:companyname="functionalfillet"
   svg:companytagline=""
   version="1.1"
   viewBox="0 0 2881.5373 779.67386"
   class="svg-primary-tile"
   id="svg60"
   sodipodi:docname="logo.svg"
   inkscape:version="1.2.1 (ef4d3fba62, 2022-07-19, custom)"
   width="2881.5374"
   height="779.67389"
   inkscape:export-filename="../a6c80eea/logo.png"
   inkscape:export-xdpi="180"
   inkscape:export-ydpi="180"
   xmlns:inkscape="http://www.inkscape.org/namespaces/inkscape"
   xmlns:sodipodi="http://sodipodi.sourceforge.net/DTD/sodipodi-0.dtd"
   xmlns="http://www.w3.org/2000/svg"
   xmlns:svg="http://www.w3.org/2000/svg">
  <defs
     id="defs64" />
  <sodipodi:namedview
     id="namedview62"
     pagecolor="#ffffff"
     bordercolor="#000000"
     borderopacity="0.25"
     inkscape:showpageshadow="2"
     inkscape:pageopacity="0.0"
     inkscape:pagecheckerboard="0"
     inkscape:deskcolor="#d1d1d1"
     showgrid="false"
     inkscape:zoom="0.23271276"
     inkscape:cx="951.81717"
     inkscape:cy="116.02286"
     inkscape:window-width="1853"
     inkscape:window-height="1025"
     inkscape:window-x="1987"
     inkscape:window-y="27"
     inkscape:window-maximized="1"
     inkscape:current-layer="g56">
    <inkscape:grid
       type="xygrid"
       id="grid320"
       originx="339.41821"
       originy="-143.82652" />
  </sodipodi:namedview>
  <g
     fill="#ffffff"
     fill-rule="none"
     stroke="none"
     stroke-width="1"
     stroke-linecap="butt"
     stroke-linejoin="miter"
     stroke-miterlimit="10"
     stroke-dasharray="none"
     stroke-dashoffset="0"
     font-family="none"
     font-weight="none"
     font-size="none"
     text-anchor="none"
     style="mix-blend-mode:normal;fill:#000000"
     id="g58"
     transform="translate(339.41821,-143.82654)">
    <g
       data-paper-data="{&quot;isGlobalGroup&quot;:true,&quot;bounds&quot;:{&quot;x&quot;:65,&quot;y&quot;:168.6384532760473,&quot;width&quot;:420,&quot;height&quot;:132.7230934479054}}"
       id="g56"
       style="fill:#000000">
      <rect
         style="fill:#ffffff;stroke:none;stroke-width:5"
         id="rect387"
         width="2881.5374"
         height="779.67389"
         x="-339.41821"
         y="143.82654" />
      <g
         id="g333"
         transform="translate(45.536279,9.8220922)">
        <path
           style="fill:#808080;stroke:#333333;stroke-width:25.132;stroke-dasharray:none;stroke-opacity:1"
           d="M 650.35552,399.51265 H 823.7243"
           id="path1245"
           inkscape:export-filename="../f96368e7/logo.png"
           inkscape:export-xdpi="360"
           inkscape:export-ydpi="360" />
        <path
           style="fill:#808080;stroke:#333333;stroke-width:25.132;stroke-dasharray:none;stroke-opacity:1"
           d="M 741.64689,527.40183 H 889.25858"
           id="path1249" />
        <path
           style="fill:#808080;stroke:#333333;stroke-width:25.132;stroke-dasharray:none;stroke-opacity:1"
           d="m 1205.1816,273.36284 h 177.1573"
           id="path1251" />
        <path
           style="fill:#808080;stroke:#333333;stroke-width:25.132;stroke-dasharray:none;stroke-opacity:1"
           d="m 1259.0721,399.35667 h 111.9537"
           id="path1253" />
        <path
           style="fill:#808080;stroke:#333333;stroke-width:25.132;stroke-dasharray:none;stroke-opacity:1"
           d="M 948.30654,501.31868 1149.0832,291.26663"
           id="path436"
           sodipodi:nodetypes="cc" />
        <path
           style="fill:#808080;stroke:#333333;stroke-width:25.132;stroke-dasharray:none;stroke-opacity:1"
           d="M 911.7334,395.13271 1149.8286,289.1266"
           id="path1178"
           sodipodi:nodetypes="cc" />
        <path
           style="fill:#808080;stroke:#333333;stroke-width:25.132;stroke-dasharray:none;stroke-opacity:1"
           d="M 962.63545,302.04949 1161.0068,483.48737"
           id="path1180" />
        <g
           data-paper-data="{&quot;isPrimaryText&quot;:true}"
           fill-rule="nonzero"
           id="g50"
           style="fill:#000000"
           transform="matrix(5.0263915,0,0,5.0263915,-254.04542,-679.00448)">
          <path
             d="M 88.877687,284.85783 H 76.71775 l 8.180318,7.73815 v 6.63269 H 71.632689 v 10.74496 H 65 v -13.84022 -0.22109 -0.2211 -3.09526 h 6.632689 3.095258 l -7.738144,-7.73814 v -6.63269 h 21.887884 z"
             data-paper-data="{&quot;glyphName&quot;:&quot;F&quot;,&quot;glyphIndex&quot;:0,&quot;firstGlyphOfWord&quot;:true,&quot;word&quot;:1}"
             id="path18"
             style="fill:#000000;stroke-width:1.37223" />
          <path
             d="m 109.24275,293.75682 h -0.0322 c -0.0215,1.03115 -0.26316,2.0247 -0.72503,2.98067 -0.46187,0.95596 -1.11171,1.77766 -1.94952,2.46509 -0.81633,0.68743 -1.73469,1.21375 -2.7551,1.57895 -1.02041,0.3652 -2.09989,0.5478 -3.23845,0.5478 -1.13856,0 -2.21805,-0.1826 -3.23845,-0.5478 -1.02041,-0.3652 -1.93878,-0.89151 -2.7551,-1.57895 -0.83781,-0.68743 -1.48765,-1.50913 -1.94952,-2.46509 -0.46187,-0.95596 -0.71429,-1.94952 -0.75725,-2.98067 v -15.78947 h 4.83351 v 15.78947 c 0.02148,0.38668 0.13963,0.74651 0.35446,1.07948 0.21482,0.33298 0.49946,0.62299 0.85392,0.87003 0.35446,0.24705 0.75725,0.44576 1.20838,0.59613 0.45113,0.15038 0.93448,0.22556 1.45005,0.22556 0.51557,0 0.99893,-0.0752 1.45005,-0.22556 0.45113,-0.15038 0.85392,-0.34909 1.20838,-0.59613 0.35446,-0.24705 0.6391,-0.53706 0.85392,-0.87003 0.21482,-0.33298 0.33298,-0.6928 0.35446,-1.07948 v -15.66058 h 4.83351 z"
             data-paper-data="{&quot;glyphName&quot;:&quot;U&quot;,&quot;glyphIndex&quot;:1,&quot;word&quot;:1}"
             id="path20"
             style="fill:#333333" />
          <path
             d="m 131.25134,278.22513 h 4.83351 v 23.13641 h -4.83351 v -5.28464 l -7.73362,-10.08593 0.0322,15.37057 h -4.86574 v -23.29753 h 4.83351 l 0.0967,0.12889 7.63695,9.92481 z"
             data-paper-data="{&quot;glyphName&quot;:&quot;N&quot;,&quot;glyphIndex&quot;:2,&quot;word&quot;:1}"
             id="path22"
             style="fill:#333333" />
          <path
             d="m 155.5478,296.56026 c 0.75188,0 1.47691,-0.16112 2.17508,-0.48335 0.69817,-0.32223 1.32653,-0.79484 1.88507,-1.41783 l 3.5768,3.22234 c -1.03115,1.13856 -2.19656,2.00322 -3.49624,2.59398 -1.29968,0.59076 -2.67991,0.88614 -4.14071,0.88614 -1.43931,0 -2.81418,-0.29538 -4.1246,-0.88614 -1.31042,-0.59076 -2.47046,-1.45542 -3.48013,-2.59398 -0.98818,-1.0956 -1.74544,-2.33083 -2.27175,-3.70569 -0.52632,-1.37487 -0.78947,-2.82492 -0.78947,-4.35016 0,-1.54672 0.26316,-3.00752 0.78947,-4.38238 0.52632,-1.37487 1.28357,-2.6101 2.27175,-3.70569 1.00967,-1.13856 2.16971,-2.00322 3.48013,-2.59398 1.31042,-0.59076 2.68528,-0.88614 4.1246,-0.88614 1.54672,0 3.01289,0.33835 4.3985,1.01504 1.38561,0.67669 2.58324,1.63802 3.59291,2.884 l -3.70569,3.06122 c -1.16004,-1.41783 -2.58861,-2.12675 -4.28571,-2.12675 -0.81633,0 -1.57358,0.17723 -2.27175,0.53169 -0.69817,0.35446 -1.31579,0.83244 -1.85285,1.43394 -0.53706,0.6015 -0.95596,1.31579 -1.25671,2.14286 -0.30075,0.82707 -0.45113,1.70247 -0.45113,2.62621 0,0.92374 0.15038,1.79377 0.45113,2.6101 0.30075,0.81633 0.71966,1.53061 1.25671,2.14286 0.53706,0.61224 1.15467,1.0956 1.85285,1.45005 0.69817,0.35446 1.45542,0.53169 2.27175,0.53169 z"
             data-paper-data="{&quot;glyphName&quot;:&quot;C&quot;,&quot;glyphIndex&quot;:3,&quot;word&quot;:1}"
             id="path24"
             style="fill:#333333" />
          <path
             d="m 189.73684,278.12846 v 4.83351 h -6.25134 v 18.33512 h -4.83351 v -18.33512 h -6.28357 v -4.83351 z"
             data-paper-data="{&quot;glyphName&quot;:&quot;T&quot;,&quot;glyphIndex&quot;:4,&quot;word&quot;:1}"
             id="path26"
             style="fill:#333333" />
          <path
             d="m 210.3276,278.19291 v 23.16864 h -4.83351 v -23.16864 z"
             data-paper-data="{&quot;glyphName&quot;:&quot;I&quot;,&quot;glyphIndex&quot;:5,&quot;word&quot;:1}"
             id="path28"
             style="fill:#333333" />
          <path
             d="m 234.75295,301.36155 c -1.46079,0 -2.84103,-0.29538 -4.14071,-0.88614 -1.29968,-0.59076 -2.46509,-1.45542 -3.49624,-2.59398 -0.98818,-1.0956 -1.74006,-2.33083 -2.25564,-3.70569 -0.51557,-1.37487 -0.77336,-2.82492 -0.77336,-4.35016 0,-1.54672 0.25779,-3.00752 0.77336,-4.38238 0.51557,-1.37487 1.26745,-2.6101 2.25564,-3.70569 1.03115,-1.13856 2.19656,-2.00322 3.49624,-2.59398 1.29968,-0.59076 2.67991,-0.88614 4.14071,-0.88614 1.46079,0 2.84103,0.29538 4.14071,0.88614 1.29968,0.59076 2.46509,1.45542 3.49624,2.59398 0.9667,1.0956 1.71321,2.33083 2.23953,3.70569 0.52632,1.37487 0.78947,2.83566 0.78947,4.38238 0,1.52524 -0.26316,2.9753 -0.78947,4.35016 -0.52632,1.37487 -1.27282,2.6101 -2.23953,3.70569 -1.03115,1.13856 -2.19656,2.00322 -3.49624,2.59398 -1.29968,0.59076 -2.67991,0.88614 -4.14071,0.88614 z m 0,-18.27068 c -0.81633,0 -1.57895,0.17723 -2.28786,0.53169 -0.70892,0.35446 -1.32653,0.83244 -1.85285,1.43394 -0.52632,0.6015 -0.94522,1.31579 -1.25671,2.14286 -0.31149,0.82707 -0.46724,1.70247 -0.46724,2.62621 0,0.92374 0.15575,1.79377 0.46724,2.6101 0.31149,0.81633 0.7304,1.53061 1.25671,2.14286 0.52632,0.61224 1.14393,1.0956 1.85285,1.45005 0.70892,0.35446 1.47154,0.53169 2.28786,0.53169 0.79484,0 1.54672,-0.17723 2.25564,-0.53169 0.70892,-0.35446 1.3319,-0.83781 1.86896,-1.45005 0.53706,-0.61224 0.95596,-1.32653 1.25671,-2.14286 0.30075,-0.81633 0.45113,-1.68636 0.45113,-2.6101 0,-0.92374 -0.15038,-1.79914 -0.45113,-2.62621 -0.30075,-0.82707 -0.71966,-1.54135 -1.25671,-2.14286 -0.53706,-0.6015 -1.16004,-1.07948 -1.86896,-1.43394 -0.70892,-0.35446 -1.46079,-0.53169 -2.25564,-0.53169 z"
             data-paper-data="{&quot;glyphName&quot;:&quot;O&quot;,&quot;glyphIndex&quot;:6,&quot;word&quot;:1}"
             id="path30"
             style="fill:#333333" />
          <path
             d="m 265.46187,278.22513 h 4.83351 v 23.13641 h -4.83351 v -5.28464 l -7.73362,-10.08593 0.0322,15.37057 h -4.86574 v -23.29753 h 4.83351 l 0.0967,0.12889 7.63695,9.92481 z"
             data-paper-data="{&quot;glyphName&quot;:&quot;N&quot;,&quot;glyphIndex&quot;:7,&quot;word&quot;:1}"
             id="path32"
             style="fill:#333333" />
          <path
             d="m 297.13749,285.57207 v 15.78947 h -4.83351 v -6.6058 h -7.73362 v 6.6058 h -4.83351 v -15.78947 c 0.0215,-1.03115 0.26853,-2.01933 0.74114,-2.96455 0.47261,-0.94522 1.12782,-1.77229 1.96563,-2.4812 0.81633,-0.68743 1.73469,-1.21375 2.7551,-1.57895 1.02041,-0.3652 2.09989,-0.5478 3.23845,-0.5478 1.11708,0 2.19119,0.1826 3.22234,0.5478 1.03115,0.3652 1.95489,0.89151 2.77121,1.57895 0.83781,0.70892 1.48765,1.53598 1.94952,2.4812 0.46187,0.94522 0.70354,1.9334 0.72503,2.96455 z m -4.83352,4.35016 v -4.35016 c -0.043,-0.38668 -0.17186,-0.74651 -0.38668,-1.07948 -0.21482,-0.33298 -0.49409,-0.62299 -0.83781,-0.87003 -0.34372,-0.24705 -0.74114,-0.44039 -1.19227,-0.58002 -0.45113,-0.13963 -0.93448,-0.20945 -1.45005,-0.20945 -0.51557,0 -0.99893,0.0698 -1.45005,0.20945 -0.45113,0.13963 -0.85392,0.33298 -1.20838,0.58002 -0.35446,0.24705 -0.6391,0.53706 -0.85392,0.87003 -0.21482,0.33298 -0.33298,0.6928 -0.35446,1.07948 v 4.35016 z"
             data-paper-data="{&quot;glyphName&quot;:&quot;A&quot;,&quot;glyphIndex&quot;:8,&quot;word&quot;:1}"
             id="path34"
             style="fill:#333333" />
          <path
             d="m 323.97959,296.52803 v 4.83351 h -12.56713 v 0 h -4.83351 V 278.1929 h 4.83351 v 18.33512 z"
             data-paper-data="{&quot;glyphName&quot;:&quot;L&quot;,&quot;glyphIndex&quot;:9,&quot;word&quot;:1}"
             id="path36"
             style="fill:#333333" />
          <path
             d="m 359.21323,284.85783 h -12.15994 l 8.18032,7.73815 v 6.63269 h -13.26538 v 10.74496 h -6.63269 v -13.84022 -0.22109 -0.2211 -3.09526 h 6.63269 3.09526 l -7.73815,-7.73814 v -6.63269 h 21.88789 z"
             data-paper-data="{&quot;glyphName&quot;:&quot;F&quot;,&quot;glyphIndex&quot;:10,&quot;word&quot;:1}"
             id="path38"
             style="fill:#000000;stroke-width:1.37223" />
          <path
             d="m 371.38024,278.19291 v 23.16864 h -4.83351 v -23.16864 z"
             data-paper-data="{&quot;glyphName&quot;:&quot;I&quot;,&quot;glyphIndex&quot;:11,&quot;word&quot;:1}"
             id="path40"
             style="fill:#333333" />
          <path
             d="m 404.50591,296.52803 v 4.83351 h -12.56713 v 0 h -4.83351 V 278.1929 h 4.83351 v 18.33512 z"
             data-paper-data="{&quot;glyphName&quot;:&quot;L&quot;,&quot;glyphIndex&quot;:12,&quot;word&quot;:1}"
             id="path42"
             style="fill:#333333" />
          <path
             d="m 429.38295,282.9942 h -12.41928 l -0.0235,5.67175 9.54263,-0.0326 v 4.83351 h -9.66702 v 3.06122 h 12.56713 v 4.83351 h -12.56713 -2.41676 -2.41676 v -2.32009 -0.16112 -0.16112 -7.50806 -0.16112 -0.16112 -2.25564 l 0.004,-5.6391 0.0278,-4.83351 h 17.36907 z"
             data-paper-data="{&quot;glyphName&quot;:&quot;E&quot;,&quot;glyphIndex&quot;:14,&quot;word&quot;:1}"
             id="path46"
             style="fill:#333333"
             sodipodi:nodetypes="ccccccccccccccccccccccc" />
          <path
             d="m 456.19283,278.12846 v 4.83351 h -6.25134 v 18.33512 h -4.83351 v -18.33512 h -6.28357 v -4.83351 z"
             data-paper-data="{&quot;glyphName&quot;:&quot;T&quot;,&quot;glyphIndex&quot;:15,&quot;lastGlyphOfWord&quot;:true,&quot;word&quot;:1}"
             id="path48"
             style="fill:#333333" />
        </g>
        <g
           data-paper-data="{&quot;isIcon&quot;:&quot;true&quot;,&quot;iconType&quot;:&quot;icon&quot;,&quot;rawIconId&quot;:&quot;1552991&quot;,&quot;selectedEffects&quot;:{&quot;container&quot;:&quot;&quot;,&quot;transformation&quot;:&quot;&quot;,&quot;pattern&quot;:&quot;&quot;},&quot;isDetailed&quot;:false,&quot;fillRule&quot;:&quot;evenodd&quot;,&quot;bounds&quot;:{&quot;x&quot;:228.99140708915147,&quot;y&quot;:168.6384532760473,&quot;width&quot;:92.01718582169704,&quot;height&quot;:92.01718582169707},&quot;iconStyle&quot;:&quot;standalone&quot;,&quot;suitableAsStandaloneIcon&quot;:true}"
           fill-rule="evenodd"
           id="g54"
           style="fill:#000000"
           transform="matrix(5.0263915,0,0,5.0263915,-334.46769,-679.00448)">
          <path
             d="m 309.04291,195.07269 c 1.67356,2.90084 2.97216,6.03518 3.86357,9.3455 4.64227,1.10421 8.10211,5.25303 8.10211,10.22886 0,4.98043 -3.45985,9.1281 -8.10211,10.23231 -0.89142,3.30572 -2.19001,6.44465 -3.86357,9.3455 2.49252,4.06371 2.00597,9.43866 -1.51023,12.95487 -3.51966,3.52081 -8.89691,4.00735 -12.95832,1.51023 -2.90199,1.67356 -6.03633,2.97216 -9.34204,3.86357 -1.10766,4.64227 -5.25648,8.10211 -10.23231,8.10211 -4.97928,0 -9.12926,-3.45985 -10.22886,-8.10211 -3.30917,-0.89142 -6.4481,-2.19001 -9.3524,-3.86012 -4.06026,2.49022 -9.43176,2.00828 -12.95142,-1.51253 -3.51621,-3.51621 -4.0039,-8.89231 -1.51023,-12.95142 -1.67701,-2.90544 -2.97216,-6.03863 -3.86357,-9.35355 -4.64227,-1.10306 -8.10211,-5.24843 -8.10211,-10.22886 0,-4.97238 3.45985,-9.12465 8.10096,-10.23001 0.89142,-3.31032 2.19001,-6.4435 3.86357,-9.34895 -2.49252,-4.06256 -2.01058,-9.43521 1.51023,-12.95487 3.51621,-3.51621 8.89231,-4.00275 12.95487,-1.50908 2.90199,-1.67356 6.03978,-2.97331 9.34895,-3.86357 1.10076,-4.63882 5.25073,-8.10211 10.23001,-8.10211 4.97583,0 9.12465,3.4633 10.23231,8.10556 3.30572,0.89142 6.44005,2.19001 9.34204,3.86357 4.06256,-2.49597 9.44211,-2.01058 12.95832,1.50563 3.51621,3.51966 4.0039,8.89691 1.51023,12.95947 z m -30.20924,-15.89137 c 0,-2.11525 -1.71382,-3.83367 -3.83367,-3.83367 -2.11985,0 -3.83367,1.71957 -3.83367,3.83367 0,2.1187 1.71382,3.83367 3.83367,3.83367 2.11985,0 3.83367,-1.71382 3.83367,-3.83367 z m 24.03373,50.42427 c 0.99264,-1.84149 1.79779,-3.79341 2.412,-5.83044 -3.1861,-1.81159 -5.3577,-5.20127 -5.3577,-9.1281 0,-3.92453 2.17046,-7.31192 5.3577,-9.1281 -0.61421,-2.03703 -1.42052,-3.98664 -2.412,-5.82584 -3.53461,0.97078 -7.46604,0.11272 -10.24381,-2.66505 -2.77777,-2.77892 -3.63583,-6.71035 -2.66505,-10.24841 -1.84149,-0.99264 -3.79226,-1.79664 -5.82929,-2.41085 -1.81734,3.1861 -5.20587,5.3577 -9.12926,5.3577 -3.93143,0 -7.31652,-2.17161 -9.12926,-5.3577 -2.03588,0.61421 -3.9901,1.41937 -5.82929,2.4074 0.97078,3.53806 0.11732,7.47295 -2.6616,10.25186 -2.78122,2.77777 -6.71725,3.63468 -10.25071,2.6616 -0.98918,1.84149 -1.79779,3.79226 -2.412,5.82929 3.18955,1.81619 5.36115,5.20357 5.36115,9.1281 0,3.93143 -2.17161,7.31767 -5.36115,9.1281 0.61421,2.04048 1.42397,3.99125 2.412,5.83389 3.53806,-0.97423 7.47295,-0.11617 10.25071,2.6616 2.77892,2.78237 3.63583,6.7138 2.6616,10.24726 1.83804,0.99379 3.79226,1.79779 5.82929,2.40855 1.81389,-3.1861 5.19782,-5.3577 9.12926,-5.3577 3.92453,0 7.31307,2.17046 9.12926,5.3577 2.03588,-0.61421 3.98664,-1.42052 5.82929,-2.412 -0.97423,-3.53461 -0.11272,-7.46604 2.66505,-10.24381 2.77432,-2.77777 6.7092,-3.63583 10.24381,-2.66505 z m -0.0782,-42.74773 c -1.49758,-1.49413 -3.92338,-1.49758 -5.42211,0 -1.49988,1.50103 -1.49643,3.92683 0,5.42556 1.49873,1.49413 3.92453,1.49758 5.42211,0 1.49758,-1.50103 1.49758,-3.92798 0,-5.42556 z m -50.15627,0 c -1.49873,-1.49413 -3.92453,-1.49413 -5.42211,0 -1.49758,1.49758 -1.49758,3.92683 0,5.42556 1.49758,1.49413 3.92338,1.49413 5.42211,0 1.49758,-1.49758 1.49758,-3.92798 0,-5.42556 z m -16.93231,27.78919 c 0,2.1187 1.71497,3.83482 3.83482,3.83482 2.1187,0 3.83367,-1.71612 3.83367,-3.83482 0,-2.11525 -1.71497,-3.83367 -3.83367,-3.83367 -2.11985,0 -3.83482,1.71842 -3.83482,3.83367 z m 70.9303,0 c 0,2.1187 1.71497,3.83482 3.83367,3.83482 2.11985,0 3.83482,-1.71612 3.83482,-3.83482 0,-2.11525 -1.71497,-3.83367 -3.83482,-3.83367 -2.1187,0 -3.83367,1.71842 -3.83367,3.83367 z m -9.26383,27.78919 c 1.49873,1.49758 3.92453,1.49758 5.42211,0 1.49413,-1.49758 1.49758,-3.92338 0,-5.42211 -1.49758,-1.50103 -3.92798,-1.49758 -5.42211,0 -1.49758,1.49873 -1.50103,3.92453 0,5.42211 z m -50.15627,0 c 1.49758,1.49758 3.92338,1.49758 5.42211,0 1.49643,-1.49758 1.49643,-3.92338 0,-5.42211 -1.49873,-1.49758 -3.92453,-1.49758 -5.42211,0 -1.49758,1.49873 -1.49758,3.92453 0,5.42211 z m 23.95552,7.67538 c 0,2.11985 1.71382,3.83482 3.83367,3.83482 2.11525,0 3.83367,-1.71497 3.83367,-3.83482 0,-2.1187 -1.71842,-3.83367 -3.83367,-3.83367 -2.11985,0 -3.83367,1.71497 -3.83367,3.83367 z"
             data-paper-data="{&quot;isPathIcon&quot;:true}"
             id="path52"
             style="fill:#000000" />
        </g>
      </g>
    </g>
  </g>
</svg>
